<svg width="21" height="21" viewBox="0 0 21 21" fill="none" xmlns="http://www.w3.org/2000/svg">
<path fill-rule="evenodd" clip-rule="evenodd" d="M3.0975 20.595C2.69068 20.5952 2.2878 20.5152 1.91191 20.3596C1.53601 20.204 1.19447 19.9759 0.906797 19.6882C0.619129 19.4005 0.390976 19.059 0.235382 18.6831C0.0797878 18.3072 -0.000196789 17.9043 3.63582e-07 17.4975V3.0975C-0.000196789 2.69068 0.0797878 2.2878 0.235382 1.91191C0.390976 1.53601 0.619129 1.19447 0.906797 0.906797C1.19447 0.619129 1.53601 0.390976 1.91191 0.235382C2.2878 0.079788 2.69068 -0.000196789 3.0975 3.63581e-07H17.4975C17.9043 -0.000196789 18.3072 0.079788 18.6831 0.235382C19.059 0.390976 19.4005 0.619129 19.6882 0.906797C19.9759 1.19447 20.204 1.53601 20.3596 1.91191C20.5152 2.2878 20.5952 2.69068 20.595 3.0975V17.4975C20.5952 17.9043 20.5152 18.3072 20.3596 18.6831C20.204 19.059 19.9759 19.4005 19.6882 19.6882C19.4005 19.9759 19.059 20.204 18.6831 20.3596C18.3072 20.5152 17.9043 20.5952 17.4975 20.595H3.0975ZM15.6825 11.895H13.5075V19.095H17.5125C17.7225 19.095 17.9304 19.0536 18.1244 18.9733C18.3184 18.8929 18.4947 18.7751 18.6432 18.6267C18.7916 18.4782 18.9094 18.3019 18.9898 18.1079C19.0701 17.9139 19.1115 17.706 19.1115 17.496V3.096C19.1115 2.67192 18.943 2.26521 18.6432 1.96534C18.3433 1.66547 17.9366 1.497 17.5125 1.497H3.1125C2.68842 1.497 2.28171 1.66547 1.98184 1.96534C1.68197 2.26521 1.5135 2.67192 1.5135 3.096V17.496C1.5135 17.9201 1.68197 18.3268 1.98184 18.6267C2.28171 18.9265 2.68842 19.095 3.1125 19.095H11.1075V11.895H8.7075V9.495H11.1075V8.2065C11.1075 5.7615 12.297 4.6965 14.3175 4.6965C15.27 4.6965 15.7815 4.7655 16.0275 4.8H16.0425V7.095H14.6595C13.962 7.095 13.632 7.395 13.533 7.995C13.5089 8.15233 13.4974 8.31134 13.4985 8.4705V9.495H16.0185L15.6765 11.895H15.6825Z" fill="#B09CFF"/>
</svg>
