<svg width="14" height="14" viewBox="0 0 14 14" fill="none" xmlns="http://www.w3.org/2000/svg">
<path d="M4.08325 12.25C3.76242 12.25 3.48786 12.1359 3.25959 11.9076C3.03131 11.6793 2.91698 11.4046 2.91659 11.0833V3.5C2.75131 3.5 2.61287 3.444 2.50125 3.332C2.38964 3.22 2.33364 3.08156 2.33325 2.91667C2.33287 2.75178 2.38887 2.61333 2.50125 2.50133C2.61364 2.38933 2.75209 2.33333 2.91659 2.33333H5.24992C5.24992 2.16806 5.30592 2.02961 5.41792 1.918C5.52992 1.80639 5.66837 1.75039 5.83325 1.75H8.16659C8.33187 1.75 8.4705 1.806 8.5825 1.918C8.6945 2.03 8.75031 2.16844 8.74992 2.33333H11.0833C11.2485 2.33333 11.3872 2.38933 11.4992 2.50133C11.6112 2.61333 11.667 2.75178 11.6666 2.91667C11.6662 3.08156 11.6102 3.22019 11.4986 3.33258C11.387 3.44497 11.2485 3.50078 11.0833 3.5V11.0833C11.0833 11.4042 10.9691 11.6789 10.7408 11.9076C10.5126 12.1363 10.2378 12.2504 9.91659 12.25H4.08325ZM5.83325 9.91667C5.99853 9.91667 6.13717 9.86067 6.24917 9.74867C6.36117 9.63667 6.41698 9.49822 6.41659 9.33333V5.25C6.41659 5.08472 6.36059 4.94628 6.24859 4.83467C6.13659 4.72306 5.99814 4.66706 5.83325 4.66667C5.66837 4.66628 5.52992 4.72228 5.41792 4.83467C5.30592 4.94706 5.24992 5.0855 5.24992 5.25V9.33333C5.24992 9.49861 5.30592 9.63725 5.41792 9.74925C5.52992 9.86125 5.66837 9.91706 5.83325 9.91667ZM8.16659 9.91667C8.33187 9.91667 8.4705 9.86067 8.5825 9.74867C8.6945 9.63667 8.75031 9.49822 8.74992 9.33333V5.25C8.74992 5.08472 8.69392 4.94628 8.58192 4.83467C8.46992 4.72306 8.33148 4.66706 8.16659 4.66667C8.0017 4.66628 7.86325 4.72228 7.75125 4.83467C7.63925 4.94706 7.58325 5.0855 7.58325 5.25V9.33333C7.58325 9.49861 7.63925 9.63725 7.75125 9.74925C7.86325 9.86125 8.0017 9.91706 8.16659 9.91667Z" fill="#B09CFF"/>
</svg>
