<svg width="20" height="20" viewBox="0 0 20 20" fill="none" xmlns="http://www.w3.org/2000/svg">
<path d="M10.0057 2.4015C10.7498 2.4015 11.5049 2.50049 12.2267 2.68748C14.2033 0.487665 17.8124 -0.436257 19.3559 0.201689C20.9106 0.839635 18.8895 7.90103 18.8895 7.90103C19.5225 9.07793 20 10.3648 20 11.6847C20 16.5903 15.5248 20 10.0057 20C4.48668 20 0.0114739 16.7003 0.0114739 11.6847C0.0114739 10.3098 0.566711 9.04493 1.12195 7.90103C1.12195 7.90103 -0.976848 0.839635 0.566711 0.201689C2.11027 -0.436257 5.80815 0.454667 7.78479 2.65448C8.51322 2.48815 9.2582 2.40329 10.0057 2.4015Z" fill="#B09CFF"/>
</svg>
