<svg width="12" height="12" viewBox="0 0 12 12" fill="none" xmlns="http://www.w3.org/2000/svg">
<path d="M5.25945 12C4.97584 12 4.73172 11.91 4.5271 11.73C4.32248 11.55 4.19895 11.33 4.15651 11.07L4.01471 10.08C3.87815 10.03 3.74958 9.97 3.62899 9.9C3.5084 9.83 3.39013 9.755 3.27416 9.675L2.29727 10.065C2.03466 10.175 1.77206 10.185 1.50945 10.095C1.24685 10.005 1.04202 9.845 0.894958 9.615L0.154412 8.385C0.00735285 8.155 -0.0346638 7.91 0.0283614 7.65C0.0913866 7.39 0.233193 7.175 0.453781 7.005L1.28887 6.405C1.27836 6.335 1.27311 6.2674 1.27311 6.2022V5.7972C1.27311 5.7324 1.27836 5.665 1.28887 5.595L0.453781 4.995C0.233193 4.825 0.0913866 4.61 0.0283614 4.35C-0.0346638 4.09 0.00735285 3.845 0.154412 3.615L0.894958 2.385C1.04202 2.155 1.24685 1.995 1.50945 1.905C1.77206 1.815 2.03466 1.825 2.29727 1.935L3.27416 2.325C3.38971 2.245 3.5105 2.17 3.63655 2.1C3.7626 2.03 3.88866 1.97 4.01471 1.92L4.15651 0.93C4.19853 0.67 4.32206 0.45 4.5271 0.27C4.73214 0.09 4.97626 0 5.25945 0H6.74055C7.02416 0 7.26849 0.09 7.47353 0.27C7.67857 0.45 7.80189 0.67 7.84349 0.93L7.98529 1.92C8.12185 1.97 8.25063 2.03 8.37164 2.1C8.49265 2.17 8.61071 2.245 8.72584 2.325L9.70273 1.935C9.96533 1.825 10.2279 1.815 10.4905 1.905C10.7532 1.995 10.958 2.155 11.105 2.385L11.8456 3.615C11.9926 3.845 12.0347 4.09 11.9716 4.35C11.9086 4.61 11.7668 4.825 11.5462 4.995L10.7111 5.595C10.7216 5.665 10.7269 5.7326 10.7269 5.7978V6.2022C10.7269 6.2674 10.7164 6.335 10.6954 6.405L11.5305 7.005C11.751 7.175 11.8929 7.39 11.9559 7.65C12.0189 7.91 11.9769 8.155 11.8298 8.385L11.0735 9.615C10.9265 9.845 10.7216 10.005 10.459 10.095C10.1964 10.185 9.93382 10.175 9.67122 10.065L8.72584 9.675C8.61029 9.755 8.4895 9.83 8.36344 9.9C8.23739 9.97 8.11134 10.03 7.98529 10.08L7.84349 11.07C7.80147 11.33 7.67815 11.55 7.47353 11.73C7.26891 11.91 7.02458 12 6.74055 12H5.25945ZM6.03151 8.1C6.64076 8.1 7.16071 7.895 7.59139 7.485C8.02206 7.075 8.23739 6.58 8.23739 6C8.23739 5.42 8.02206 4.925 7.59139 4.515C7.16071 4.105 6.64076 3.9 6.03151 3.9C5.41176 3.9 4.88908 4.105 4.46345 4.515C4.03782 4.925 3.82521 5.42 3.82563 6C3.82605 6.58 4.03887 7.075 4.46408 7.485C4.88929 7.895 5.41176 8.1 6.03151 8.1Z" fill="#B09CFF"/>
</svg>
