<svg width="31" height="31" viewBox="0 0 31 31" fill="none" xmlns="http://www.w3.org/2000/svg">
<path d="M19.5 9H19.515M15.75 28.5H6C4.80653 28.5 3.66193 28.0259 2.81802 27.182C1.97411 26.3381 1.5 25.1935 1.5 24V6C1.5 4.80653 1.97411 3.66193 2.81802 2.81802C3.66193 1.97411 4.80653 1.5 6 1.5H24C25.1935 1.5 26.3381 1.97411 27.182 2.81802C28.0259 3.66193 28.5 4.80653 28.5 6V15.75" stroke="#FDF6F2" stroke-width="2" stroke-linecap="round" stroke-linejoin="round"/>
<path d="M1.5 21.0007L9 13.5007C10.392 12.1612 12.108 12.1612 13.5 13.5007L18.75 18.7507" stroke="#FDF6F2" stroke-width="2" stroke-linecap="round" stroke-linejoin="round"/>
<path d="M18 18.0008L19.5 16.5008C20.5185 15.5213 21.7095 15.2573 22.821 15.7118M25.5 30.0008V21.0008M25.5 21.0008L30 25.5008M25.5 21.0008L21 25.5008" stroke="#FDF6F2" stroke-width="2" stroke-linecap="round" stroke-linejoin="round"/>
</svg>
