<svg width="24" height="24" viewBox="0 0 24 24" fill="none" xmlns="http://www.w3.org/2000/svg">
<path d="M15.272 13.2101C15.8128 13.38 16.3309 13.6151 16.815 13.9101L16.784 13.8921C17.313 14.1271 17.77 14.4021 18.187 14.7251L18.172 14.7141C18.1927 14.7761 18.2033 14.8437 18.204 14.9171L18.203 14.9491V14.9481C18.188 15.3771 18.093 15.7801 17.932 16.1471L17.94 16.1261C17.709 16.5891 17.324 16.9461 16.853 17.1361L16.839 17.1411C16.352 17.3967 15.8128 17.5372 15.263 17.5521H15.257C14.2075 17.4181 13.1933 17.0848 12.269 16.5701L12.312 16.5921C11.3298 16.1471 10.4366 15.5274 9.676 14.7631L9.675 14.7621C8.84549 13.8982 8.09328 12.9633 7.427 11.9681L7.38 11.8941C6.72004 11.0293 6.33663 9.98539 6.28 8.89905L6.279 8.88605V8.76205C6.29355 8.29787 6.40249 7.84152 6.59918 7.42082C6.79586 7.00012 7.07616 6.62389 7.423 6.31505L7.426 6.31205C7.64019 6.09864 7.92868 5.97643 8.231 5.97105H8.232C8.33267 5.97372 8.43 5.98205 8.524 5.99605L8.511 5.99405C8.598 6.00705 8.699 6.01505 8.803 6.01705H8.806C8.9516 6.00273 9.09772 6.03873 9.22 6.11905L9.218 6.11805C9.325 6.23605 9.407 6.37905 9.456 6.53605L9.458 6.54405C9.54067 6.75072 9.71133 7.20539 9.97 7.90805C10.105 8.22205 10.237 8.60905 10.343 9.00705L10.357 9.07005C10.2851 9.41818 10.0972 9.7316 9.824 9.95905L9.821 9.96105C9.46433 10.3384 9.286 10.5784 9.286 10.6811C9.29004 10.7652 9.31816 10.8464 9.367 10.9151L9.366 10.9141C9.75213 11.714 10.287 12.4331 10.942 13.0331L10.947 13.0381C11.633 13.6541 12.401 14.1724 13.229 14.5781L13.288 14.6041C13.3897 14.669 13.5065 14.7065 13.627 14.7131H13.629C13.7843 14.7131 14.0637 14.4624 14.467 13.9611C14.8703 13.4597 15.1383 13.2091 15.271 13.2091L15.272 13.2101ZM12.125 21.4261H12.147C13.4602 21.4291 14.7594 21.1569 15.961 20.6271L15.9 20.6511C18.256 19.6571 20.093 17.8201 21.063 15.5271L21.087 15.4641C21.577 14.3511 21.862 13.0531 21.862 11.6891C21.862 10.3251 21.577 9.02705 21.063 7.85205L21.087 7.91405C20.093 5.55805 18.256 3.72105 15.963 2.75105L15.9 2.72705C14.787 2.23705 13.489 1.95205 12.125 1.95205C10.761 1.95205 9.463 2.23705 8.288 2.75105L8.35 2.72705C5.994 3.72105 4.157 5.55805 3.187 7.85105L3.163 7.91405C2.64787 9.10993 2.38407 10.3989 2.388 11.7011C2.38477 13.7599 3.04351 15.7652 4.267 17.4211L4.248 17.3951L3.023 21.0081L6.775 19.8141C8.34238 20.8697 10.1903 21.4312 12.08 21.4261H12.127H12.125ZM12.125 5.2903e-05H12.158C13.786 5.2903e-05 15.334 0.342053 16.733 0.959053L16.66 0.930053C19.485 2.12705 21.688 4.33005 22.856 7.07905L22.885 7.15505C23.473 8.49205 23.815 10.0511 23.815 11.6901C23.815 13.3291 23.473 14.8881 22.856 16.2991L22.885 16.2251C21.688 19.0501 19.485 21.2531 16.736 22.4211L16.66 22.4501C15.333 23.0381 13.785 23.3801 12.157 23.3801H12.123H12.125H12.072C10.013 23.3801 8.08 22.8391 6.408 21.8921L6.465 21.9221L0 24.0001L2.109 17.7211C1.00787 15.9102 0.428552 13.8304 0.435 11.7111C0.435 10.0651 0.777 8.49905 1.394 7.08005L1.365 7.15505C2.562 4.33005 4.765 2.12705 7.514 0.959053L7.59 0.930053C9.01053 0.311964 10.5438 -0.00470836 12.093 5.2903e-05H12.125Z" fill="#B09CFF"/>
</svg>
