<svg width="80" height="80" viewBox="0 0 80 80" fill="none" xmlns="http://www.w3.org/2000/svg">
<g clip-path="url(#clip0_350_4187)">
<path d="M40 16.6667C42.2334 16.6667 44.5 16.9667 46.6667 17.5334C52.6 10.8667 63.4334 8.06669 68.0667 10C72.7334 11.9334 66.6667 33.3334 66.6667 33.3334C68.5667 36.9 70 40.8 70 44.8C70 59.6667 56.5667 70 40 70C23.4334 70 10 60 10 44.8C10 40.6334 11.6667 36.8 13.3334 33.3334C13.3334 33.3334 7.03335 11.9334 11.6667 10C16.3 8.06669 27.4 10.7667 33.3334 17.4334C35.5199 16.9293 37.7561 16.6721 40 16.6667Z" stroke="#B09CFF" stroke-width="2" stroke-linecap="round" stroke-linejoin="round"/>
<path d="M40 16.6667C42.2334 16.6667 44.5 16.9667 46.6667 17.5334C52.6 10.8667 63.4334 8.06669 68.0667 10C72.7334 11.9334 66.6667 33.3334 66.6667 33.3334C68.5667 36.9 70 40.8 70 44.8C70 59.6667 56.5667 70 40 70C23.4334 70 10 60 10 44.8C10 40.6334 11.6667 36.8 13.3334 33.3334C13.3334 33.3334 7.03335 11.9334 11.6667 10C16.3 8.06669 27.4 10.7667 33.3334 17.4334C35.5199 16.9293 37.7561 16.6721 40 16.6667Z" fill="#B09CFF"/>
</g>
<defs>
<clipPath id="clip0_350_4187">
<rect width="80" height="80" fill="white"/>
</clipPath>
</defs>
</svg>
