<svg xmlns="http://www.w3.org/2000/svg" xmlns:xlink="http://www.w3.org/1999/xlink">
	<symbol id="bell">
		<path d="M15.019 17H8.97901M15.019 17H18.633C20.509 17 20.192 15.14 19.243 14.196C15.825 10.801 20.68 3 11.999 3C3.31801 3 8.17401 10.8 4.75601 14.196C3.84301 15.104 3.45401 17 5.36601 17H8.97901M15.019 17C15.019 18.925 14.371 21 11.999 21C9.62701 21 8.97901 18.925 8.97901 17" stroke="#B09CFF" stroke-width="1.5" stroke-linecap="round" stroke-linejoin="round"/>
	</symbol>
	<symbol id="user">
		<path d="M12 0C13.5913 0 15.1174 0.632141 16.2426 1.75736C17.3679 2.88258 18 4.4087 18 6C18 7.5913 17.3679 9.11742 16.2426 10.2426C15.1174 11.3679 13.5913 12 12 12C10.4087 12 8.88258 11.3679 7.75736 10.2426C6.63214 9.11742 6 7.5913 6 6C6 4.4087 6.63214 2.88258 7.75736 1.75736C8.88258 0.632141 10.4087 0 12 0ZM12 15C18.63 15 24 17.685 24 21V24H0V21C0 17.685 5.37 15 12 15Z"></path>
	</symbol>
	<symbol id="settings">
		<path d="M10.5189 24C9.95168 24 9.46344 23.82 9.0542 23.46C8.64496 23.1 8.3979 22.66 8.31302 22.14L8.02941 20.16C7.7563 20.06 7.49916 19.94 7.25798 19.8C7.01681 19.66 6.78025 19.51 6.54832 19.35L4.59454 20.13C4.06933 20.35 3.54412 20.37 3.01891 20.19C2.4937 20.01 2.08403 19.69 1.78992 19.23L0.308823 16.77C0.0147057 16.31 -0.0693277 15.82 0.0567227 15.3C0.182773 14.78 0.466386 14.35 0.907563 14.01L2.57773 12.81C2.55672 12.67 2.54622 12.5348 2.54622 12.4044V11.5944C2.54622 11.4648 2.55672 11.33 2.57773 11.19L0.907563 9.99C0.466386 9.65 0.182773 9.22 0.0567227 8.7C-0.0693277 8.18 0.0147057 7.69 0.308823 7.23L1.78992 4.77C2.08403 4.31 2.4937 3.99 3.01891 3.81C3.54412 3.63 4.06933 3.65 4.59454 3.87L6.54832 4.65C6.77941 4.49 7.02101 4.34 7.27311 4.2C7.52521 4.06 7.77731 3.94 8.02941 3.84L8.31302 1.86C8.39706 1.34 8.64412 0.9 9.0542 0.54C9.46428 0.18 9.95252 0 10.5189 0H13.4811C14.0483 0 14.537 0.18 14.9471 0.54C15.3571 0.9 15.6038 1.34 15.687 1.86L15.9706 3.84C16.2437 3.94 16.5013 4.06 16.7433 4.2C16.9853 4.34 17.2214 4.49 17.4517 4.65L19.4055 3.87C19.9307 3.65 20.4559 3.63 20.9811 3.81C21.5063 3.99 21.916 4.31 22.2101 4.77L23.6912 7.23C23.9853 7.69 24.0693 8.18 23.9433 8.7C23.8172 9.22 23.5336 9.65 23.0924 9.99L21.4223 11.19C21.4433 11.33 21.4538 11.4652 21.4538 11.5956V12.4044C21.4538 12.5348 21.4328 12.67 21.3908 12.81L23.0609 14.01C23.5021 14.35 23.7857 14.78 23.9118 15.3C24.0378 15.82 23.9538 16.31 23.6597 16.77L22.1471 19.23C21.8529 19.69 21.4433 20.01 20.9181 20.19C20.3929 20.37 19.8676 20.35 19.3424 20.13L17.4517 19.35C17.2206 19.51 16.979 19.66 16.7269 19.8C16.4748 19.94 16.2227 20.06 15.9706 20.16L15.687 22.14C15.6029 22.66 15.3563 23.1 14.9471 23.46C14.5378 23.82 14.0492 24 13.4811 24H10.5189ZM12.063 16.2C13.2815 16.2 14.3214 15.79 15.1828 14.97C16.0441 14.15 16.4748 13.16 16.4748 12C16.4748 10.84 16.0441 9.85 15.1828 9.03C14.3214 8.21 13.2815 7.8 12.063 7.8C10.8235 7.8 9.77815 8.21 8.92689 9.03C8.07563 9.85 7.65042 10.84 7.65126 12C7.6521 13.16 8.07773 14.15 8.92815 14.97C9.77857 15.79 10.8235 16.2 12.063 16.2Z"></path>
	</symbol>
</svg>